<?xml version="1.0" encoding="utf-8" ?>
<svg xmlns="http://www.w3.org/2000/svg" xmlns:xlink="http://www.w3.org/1999/xlink" width="86" height="25">
	<defs>
		<clipPath id="clip_0">
			<rect x="-150" y="-30" width="1440" height="3597" clip-rule="evenodd"/>
		</clipPath>
	</defs>
	<g clip-path="url(#clip_0)">
		<path fill="rgb(255,255,255)" stroke="none" transform="translate(71 4)" d="M14.0292 3.62603C13.4029 2.47934 12.4948 1.61157 11.3674 0.960744C10.2401 0.309917 8.95616 0 7.51566 0C6.04384 0 4.75992 0.309917 3.60125 0.960744C2.4739 1.61157 1.56576 2.47934 0.939457 3.62603C0.313152 4.74174 0 6.04339 0 7.5C0 8.95661 0.313152 10.2273 0.939457 11.374C1.56576 12.5207 2.44259 13.3884 3.60125 14.0393C4.75992 14.6901 6.07516 15 7.51566 15C8.95616 15 10.2714 14.6901 11.3987 14.0393C12.5261 13.3884 13.4342 12.5207 14.0605 11.374C14.6868 10.2273 15 8.92562 15 7.5C15 6.04339 14.6868 4.77273 14.0292 3.62603ZM3.2881 4.8657C3.6952 4.09091 4.25887 3.50207 5.01044 3.06818C5.762 2.66529 6.5762 2.44835 7.51566 2.41736C8.45512 2.41736 9.26931 2.6343 10.0209 3.06818C10.7724 3.50207 11.3361 4.09091 11.7432 4.8657C12.1503 5.6405 12.3695 6.53926 12.3695 7.5C12.3695 8.46074 12.1503 9.32851 11.7432 10.1033C11.3361 10.8781 10.7724 11.4669 10.0209 11.9008C9.26931 12.3347 8.45512 12.5517 7.51566 12.5517C6.5762 12.5517 5.73069 12.3347 5.01044 11.9008C4.29019 11.4669 3.6952 10.8781 3.2881 10.1033C2.881 9.32851 2.6618 8.49174 2.6618 7.5C2.6618 6.50826 2.881 5.6405 3.2881 4.8657Z" fill-rule="evenodd"/>
	</g>
	<defs>
		<clipPath id="clip_1">
			<rect x="-150" y="-30" width="1440" height="3597" clip-rule="evenodd"/>
		</clipPath>
	</defs>
	<g clip-path="url(#clip_1)">
		<path fill="rgb(255,255,255)" stroke="none" transform="translate(11 3)" d="M3.25301 0.762619C3.07229 0.855877 2.89157 0.980221 2.71084 1.10456L2.71084 0.0787274L0 0.0787274L0 12.2023C0 13.7566 1.20482 15 2.71084 15L2.71084 5.58095C2.71084 4.52402 3.34337 3.52927 4.39759 2.96972C5.27108 2.47235 6.26506 2.37909 7.25904 2.62778C7.74096 2.75212 8.22289 2.96972 8.6747 3.28058L10 1.19782C7.89157 -0.232132 5.36145 -0.387562 3.25301 0.762619Z"/>
	</g>
	<defs>
		<clipPath id="clip_2">
			<rect x="-150" y="-30" width="1440" height="3597" clip-rule="evenodd"/>
		</clipPath>
	</defs>
	<g clip-path="url(#clip_2)">
		<path fill="rgb(255,255,255)" stroke="none" d="M4.96552 12.72L4.96552 6.6L8.68966 6.6L8.68966 4.2L4.96552 4.2L4.96552 2.4C4.96552 1.83 4.65517 1.29 4.15862 0.99L2.48276 0L2.48276 4.2L0 4.2L0 6.6L2.48276 6.6L2.48276 12.72C2.48276 15.63 4.93448 18 7.94483 18L9 18L9 15.6L7.94483 15.6C6.3 15.6 4.96552 14.31 4.96552 12.72Z"/>
	</g>
	<defs>
		<clipPath id="clip_3">
			<rect x="-150" y="-30" width="1440" height="3597" clip-rule="evenodd"/>
		</clipPath>
	</defs>
	<g clip-path="url(#clip_3)">
		<path fill="rgb(255,255,255)" stroke="none" transform="translate(21 3)" d="M7.49257 2.5C10.2453 2.5 12.4975 4.75 12.4975 7.5L12.4975 12.5C12.4975 13.875 13.6236 15 15 15L15 15L15 7.5C15 3.34375 11.6529 0 7.49257 0L7.49257 0C3.05067 0 -0.452797 3.84375 0.0476981 8.34375C0.42307 11.75 3.14451 14.5313 6.58542 14.9375C7.80538 15.0938 8.96277 14.9375 10.0263 14.5625L10.0263 11.8125C9.0879 12.3438 7.99306 12.5938 6.80439 12.4375C4.58344 12.125 2.80042 10.3125 2.55018 8.0625C2.1748 5.0625 4.55216 2.5 7.49257 2.5"/>
	</g>
	<defs>
		<clipPath id="clip_4">
			<rect x="-150" y="-30" width="1440" height="3597" clip-rule="evenodd"/>
		</clipPath>
	</defs>
	<g clip-path="url(#clip_4)">
		<path fill="rgb(255,255,255)" stroke="none" transform="translate(38 4)" d="M7.47633 2.43478C10.4168 2.43478 12.7942 4.93043 12.4501 7.85217C12.1999 10.0435 10.4168 11.8087 8.19581 12.113C7.0071 12.2652 5.91224 12.0217 4.97379 11.5043L4.97379 14.1826C6.03737 14.5478 7.19479 14.7 8.41478 14.5478C11.8245 14.1522 14.546 11.4435 14.9527 8.12609C15.4532 3.71304 11.9183 0 7.50761 0L7.50761 0C3.34714 0 0 3.25652 0 7.30435L0 21L0 21C1.3764 21 2.50254 19.9043 2.50254 18.5652L2.50254 7.30435C2.47126 4.62609 4.72354 2.43478 7.47633 2.43478"/>
	</g>
	<defs>
		<clipPath id="clip_5">
			<rect x="-150" y="-30" width="1440" height="3597" clip-rule="evenodd"/>
		</clipPath>
	</defs>
	<g clip-path="url(#clip_5)">
		<path fill="rgb(255,255,255)" stroke="none" transform="translate(55 4)" d="M7.47633 2.43478C10.4168 2.43478 12.7942 4.93043 12.4501 7.85217C12.1999 10.0435 10.4168 11.8087 8.19581 12.113C7.0071 12.2652 5.91224 12.0217 4.97379 11.5043L4.97379 14.1826C6.03737 14.5478 7.19479 14.7 8.41478 14.5478C11.8245 14.1522 14.546 11.4435 14.9527 8.12609C15.4532 3.71304 11.9183 0 7.50761 0L7.50761 0C3.34714 0 0 3.25652 0 7.30435L0 21L0 21C1.3764 21 2.50254 19.9043 2.50254 18.5652L2.50254 7.30435C2.47126 4.62609 4.72354 2.43478 7.47633 2.43478"/>
	</g>

</svg>
