<svg xmlns="http://www.w3.org/2000/svg" xmlns:xlink="http://www.w3.org/1999/xlink" width="758" height="60"><rect id="backgroundrect" width="100%" height="100%" x="0" y="0" fill="none" stroke="none"/>
	<defs>
		<clipPath id="clip_0">
			<rect x="-416" y="-817" width="1440" height="3597" clip-rule="evenodd" id="svg_1"/>
		</clipPath>
	</defs>
	
	<defs>
		<clipPath id="clip_1">
			<rect x="-416" y="-817" width="1440" height="3597" clip-rule="evenodd" id="svg_2"/>
		</clipPath>
	</defs>
	
	<defs>
		<clipPath id="clip_2">
			<rect x="-416" y="-817" width="1440" height="3597" clip-rule="evenodd" id="svg_3"/>
		</clipPath>
	</defs>
	
	<defs>
		<clipPath id="clip_3">
			<rect x="-416" y="-817" width="1440" height="3597" clip-rule="evenodd" id="svg_4"/>
		</clipPath>
	</defs>
	
	<defs>
		<clipPath id="clip_4">
			<rect x="-416" y="-817" width="1440" height="3597" clip-rule="evenodd" id="svg_5"/>
		</clipPath>
	</defs>
	
	<defs>
		<clipPath id="clip_5">
			<rect x="-416" y="-817" width="1440" height="3597" clip-rule="evenodd" id="svg_6"/>
		</clipPath>
	</defs>
	
	<defs>
		<clipPath id="clip_6">
			<rect x="-416" y="-817" width="1440" height="3597" clip-rule="evenodd" id="svg_7"/>
		</clipPath>
	</defs>
	
	<defs>
		<clipPath id="clip_7">
			<rect x="-416" y="-817" width="1440" height="3597" clip-rule="evenodd" id="svg_8"/>
		</clipPath>
	</defs>
	
	<defs>
		<clipPath id="clip_8">
			<rect x="-416" y="-817" width="1440" height="3597" clip-rule="evenodd" id="svg_9"/>
		</clipPath>
	</defs>
	
	<defs>
		<clipPath id="clip_9">
			<rect x="-416" y="-817" width="1440" height="3597" clip-rule="evenodd" id="svg_10"/>
		</clipPath>
	</defs>
	
	<defs>
		<clipPath id="clip_10">
			<rect x="-416" y="-817" width="1440" height="3597" clip-rule="evenodd" id="svg_11"/>
		</clipPath>
	</defs>
	
	<defs>
		<clipPath id="clip_11">
			<rect x="-416" y="-817" width="1440" height="3597" clip-rule="evenodd" id="svg_12"/>
		</clipPath>
	</defs>
	
	<defs>
		<clipPath id="clip_12">
			<rect x="-416" y="-817" width="1440" height="3597" clip-rule="evenodd" id="svg_13"/>
		</clipPath>
	</defs>
	
	<defs>
		<clipPath id="clip_13">
			<rect x="-416" y="-817" width="1440" height="3597" clip-rule="evenodd" id="svg_14"/>
		</clipPath>
	</defs>
	
	<defs>
		<clipPath id="clip_14">
			<rect x="-416" y="-817" width="1440" height="3597" clip-rule="evenodd" id="svg_15"/>
		</clipPath>
	</defs>
	
	<defs>
		<clipPath id="clip_15">
			<rect x="-416" y="-817" width="1440" height="3597" clip-rule="evenodd" id="svg_16"/>
		</clipPath>
	</defs>
	
	<defs>
		<clipPath id="clip_16">
			<rect x="-416" y="-817" width="1440" height="3597" clip-rule="evenodd" id="svg_17"/>
		</clipPath>
	</defs>
	
	<defs>
		<clipPath id="clip_17">
			<rect x="-416" y="-817" width="1440" height="3597" clip-rule="evenodd" id="svg_18"/>
		</clipPath>
	</defs>
	
	<defs>
		<clipPath id="clip_18">
			<rect x="-416" y="-817" width="1440" height="3597" clip-rule="evenodd" id="svg_19"/>
		</clipPath>
	</defs>
	
	<defs>
		<clipPath id="clip_19">
			<rect x="-416" y="-817" width="1440" height="3597" clip-rule="evenodd" id="svg_20"/>
		</clipPath>
	</defs>
	
	<defs>
		<clipPath id="clip_20">
			<rect x="-416" y="-817" width="1440" height="3597" clip-rule="evenodd" id="svg_21"/>
		</clipPath>
	</defs>
	
	<defs>
		<clipPath id="clip_21">
			<rect x="-416" y="-817" width="1440" height="3597" clip-rule="evenodd" id="svg_22"/>
		</clipPath>
	</defs>
	
	<defs>
		<clipPath id="clip_22">
			<rect x="-416" y="-817" width="1440" height="3597" clip-rule="evenodd" id="svg_23"/>
		</clipPath>
	</defs>
	
	<defs>
		<clipPath id="clip_23">
			<rect x="-416" y="-817" width="1440" height="3597" clip-rule="evenodd" id="svg_24"/>
		</clipPath>
	</defs>
	
	<defs>
		<clipPath id="clip_24">
			<rect x="-416" y="-817" width="1440" height="3597" clip-rule="evenodd" id="svg_25"/>
		</clipPath>
	</defs>
	

<g class="currentLayer" style=""><title>Layer 1</title><g clip-path="url(#clip_0)" id="svg_26" class="">
		<path fill="rgb(181,174,207)" stroke="none" d="M702.3963963985443,39.998599999999996 L702.3963963985443,17 L708.6385863985444,17 L708.6385863985444,25.675159999999998 L712.6229963985443,25.675159999999998 L712.6229963985443,17 L718.8651963985443,17 L718.8651963985443,39.998599999999996 L712.6229963985443,39.998599999999996 L712.6229963985443,31.485599999999998 L708.6385863985444,31.485599999999998 L708.6385863985444,39.998599999999996 L702.3963963985443,39.998599999999996 zM736.3963963985443,22.87803 C736.3963963985443,17.959402 731.4822963985443,17 729.7557963985444,17 L720.1932963985444,17 L720.1932963985444,39.998599999999996 L730.1541963985443,39.998599999999996 C730.1541963985443,39.998599999999996 736.1307963985444,40.2689 736.1307963985444,33.2423 C736.1307963985444,29.557299999999998 733.8574963985443,28.7224 733.1251963985443,28.4535 C732.8719963985443,28.360500000000002 732.8030963985443,28.3352 733.0760963985443,28.283099999999997 C734.5369963985443,28.012900000000002 736.3963963985443,26.83725 736.3963963985443,22.87803 zM725.7713963985443,26.08054 L725.7713963985443,22.607770000000002 L729.0916963985443,22.607770000000002 C729.0916963985443,22.607770000000002 730.4197963985443,22.59426 730.4197963985443,24.25632 C730.4197963985443,25.91838 729.0916963985443,26.08054 729.0916963985443,26.08054 L725.7713963985443,26.08054 zM725.7713963985443,31.080199999999998 L725.7713963985443,34.5935 L729.0916963985443,34.5935 C729.0916963985443,34.5935 730.4197963985443,34.4584 730.4197963985443,32.7018 C730.4197963985443,31.080199999999998 729.0916963985443,31.080199999999998 729.0916963985443,31.080199999999998 L725.7713963985443,31.080199999999998 z" fill-rule="evenodd" id="svg_27"/>
	</g><g clip-path="url(#clip_0)" class="" id="svg_76">
		<path fill="rgb(181,174,207)" stroke="none" d="M702.3963963985443,39.998599999999996 L702.3963963985443,17 L708.6385863985444,17 L708.6385863985444,25.675159999999998 L712.6229963985443,25.675159999999998 L712.6229963985443,17 L718.8651963985443,17 L718.8651963985443,39.998599999999996 L712.6229963985443,39.998599999999996 L712.6229963985443,31.485599999999998 L708.6385863985444,31.485599999999998 L708.6385863985444,39.998599999999996 L702.3963963985443,39.998599999999996 zM736.3963963985443,22.87803 C736.3963963985443,17.959402 731.4822963985443,17 729.7557963985444,17 L720.1932963985444,17 L720.1932963985444,39.998599999999996 L730.1541963985443,39.998599999999996 C730.1541963985443,39.998599999999996 736.1307963985444,40.2689 736.1307963985444,33.2423 C736.1307963985444,29.557299999999998 733.8574963985443,28.7224 733.1251963985443,28.4535 C732.8719963985443,28.360500000000002 732.8030963985443,28.3352 733.0760963985443,28.283099999999997 C734.5369963985443,28.012900000000002 736.3963963985443,26.83725 736.3963963985443,22.87803 zM725.7713963985443,26.08054 L725.7713963985443,22.607770000000002 L729.0916963985443,22.607770000000002 C729.0916963985443,22.607770000000002 730.4197963985443,22.59426 730.4197963985443,24.25632 C730.4197963985443,25.91838 729.0916963985443,26.08054 729.0916963985443,26.08054 L725.7713963985443,26.08054 zM725.7713963985443,31.080199999999998 L725.7713963985443,34.5935 L729.0916963985443,34.5935 C729.0916963985443,34.5935 730.4197963985443,34.4584 730.4197963985443,32.7018 C730.4197963985443,31.080199999999998 729.0916963985443,31.080199999999998 729.0916963985443,31.080199999999998 L725.7713963985443,31.080199999999998 z" fill-rule="evenodd" id="svg_78"/>
	</g><g clip-path="url(#clip_1)" id="svg_28" class="">
		<path fill="none" stroke="rgb(181,174,207)" stroke-width="6" stroke-linecap="round" stroke-linejoin="round" d="M745.8963963985443,37 C750.5907963985443,37 754.3963963985443,33.1944 754.3963963985443,28.5 C754.3963963985443,23.80558 750.5907963985443,20 745.8963963985443,20 C741.2019763985443,20 737.3963963985443,23.80558 737.3963963985443,28.5 C737.3963963985443,33.1944 741.2019763985443,37 745.8963963985443,37 z" id="svg_29"/>
	</g><g clip-path="url(#clip_1)" class="" id="svg_80">
		<path fill="none" stroke="rgb(181,174,207)" stroke-width="6" stroke-linecap="round" stroke-linejoin="round" d="M745.8963963985443,37 C750.5907963985443,37 754.3963963985443,33.1944 754.3963963985443,28.5 C754.3963963985443,23.80558 750.5907963985443,20 745.8963963985443,20 C741.2019763985443,20 737.3963963985443,23.80558 737.3963963985443,28.5 C737.3963963985443,33.1944 741.2019763985443,37 745.8963963985443,37 z" id="svg_82"/>
	</g><g clip-path="url(#clip_2)" id="svg_30" class="">
		<path fill="rgb(181,174,207)" stroke="none" d="M745.8963963985443,33 C748.3816763985443,33 750.3963963985443,30.98528 750.3963963985443,28.5 C750.3963963985443,26.01472 748.3816763985443,24 745.8963963985443,24 C743.4111163985443,24 741.3963963985443,26.01472 741.3963963985443,28.5 C741.3963963985443,30.98528 743.4111163985443,33 745.8963963985443,33 z" id="svg_31"/>
	</g><g clip-path="url(#clip_3)" id="svg_32">
		<path fill="rgb(181,174,207)" stroke="none" d="M559.2180122070313,16.799999237060547 C552.5234222070312,16.799999237060547 547.2000122070312,22.193489237060547 547.2000122070312,28.763399237060547 C547.2000122070312,35.40519923706054 552.5234222070312,40.79999923706055 559.2180122070313,40.79999923706055 C565.9480122070313,40.79999923706055 571.2000122070312,35.40619923706055 571.2000122070312,28.76539923706055 C571.2011122070312,22.195579237060546 565.9480122070313,16.799999237060547 559.2180122070313,16.799999237060547 zM559.2180122070313,21.878089237060546 C564.6843122070312,21.878089237060546 568.6887122070312,25.303419237060545 570.3808122070312,28.76539923706055 C568.6887122070312,32.28029923706055 564.6843122070312,35.72189923706055 559.2180122070313,35.72189923706055 C553.7164922070313,35.72189923706055 549.7441722070313,32.279199237060546 548.0531382070312,28.76539923706055 C549.7441722070313,25.30454923706055 553.7176222070312,21.88018923706055 559.2180122070313,21.88018923706055 L559.2180122070313,21.878089237060546 zM552.7538222070312,28.763399237060547 C552.7538222070312,25.266469237060548 555.6570722070312,22.422549237060547 559.2180122070313,22.422549237060547 C562.7790122070312,22.422549237060547 565.6441122070313,25.268569237060547 565.6441122070313,28.76539923706055 C565.6441122070313,32.31289923706055 562.7790122070312,35.14189923706054 559.2180122070313,35.14189923706054 C555.6570722070312,35.14189923706054 552.7538222070312,32.31309923706055 552.7538222070312,28.763399237060547 z" fill-rule="evenodd" id="svg_33"/>
	</g><g clip-path="url(#clip_4)" id="svg_34">
		<path fill="rgb(181,174,207)" stroke="none" d="M582.0390122070313,18 C575.6516122070312,18 571.2000122070312,22.59808 571.2000122070312,28.1908 L571.2000122070312,28.2583 C571.2000122070312,33.9202 575.7423022070312,38.4 581.8772122070312,38.4 C585.8757122070313,38.4 588.2647122070313,37.043800000000005 590.4000122070313,34.864000000000004 L587.4865122070313,32.0867 C585.8572122070312,33.4923 584.3899122070312,34.403800000000004 582.0195122070312,34.403800000000004 C578.4553322070312,34.403800000000004 575.9768322070313,31.5697 575.9768322070313,28.1908 L575.9768322070313,28.139699999999998 C575.9768322070313,24.75966 578.5097522070313,21.99615 582.0195122070312,21.99615 C584.1004122070312,21.99615 585.7291122070312,22.83715 587.3398122070313,24.22737 L590.2534122070313,21.03495 C588.3172122070313,19.23403 585.9656122070312,18 582.0390122070313,18 z" id="svg_35"/>
	</g><g clip-path="url(#clip_5)" id="svg_36">
		<path fill="rgb(181,174,207)" stroke="none" d="M592.7999877929688,18 L592.7999877929688,38.4 L602.2064277929687,38.4 C606.6595877929688,38.4 609.5999877929687,36.538 609.5999877929687,32.8106 L609.5999877929687,32.7386 C609.5999877929687,30.0045 608.1914877929687,28.6358 605.9021877929688,27.73122 C607.3131877929687,26.91528 608.4992877929687,25.63712 608.4992877929687,23.3291 L608.4992877929687,23.27619 C608.4992877929687,21.8716 608.0515877929688,20.73565 607.1402877929687,19.79471 C606.0065877929687,18.641266 604.2349877929687,18 601.9809577929688,18 L592.7999877929688,18 zM597.0286877929688,21.92381 L601.3291277929687,21.92381 C603.1693877929688,21.92381 604.1823877929687,22.68719 604.1823877929687,24.01905 L604.1823877929687,24.09101 C604.1823877929687,25.60014 602.9620877929688,26.239150000000002 601.0360077929688,26.239150000000002 L597.0286877929688,26.24127 L597.0286877929688,21.92381 zM602.0690977929687,29.970399999999998 L597.0286877929688,29.970399999999998 L597.0286877929688,34.463499999999996 L602.2064277929687,34.4614 C604.1148877929687,34.4614 605.2831877929688,33.7695 605.2831877929688,32.2603 L605.2831877929688,32.1905 C605.2831877929688,30.8234 604.2857877929688,29.970399999999998 602.0690977929687,29.970399999999998 z" fill-rule="evenodd" id="svg_37"/>
	</g><g clip-path="url(#clip_6)" id="svg_38">
		<path fill="rgb(181,174,207)" stroke="none" d="M618.4814677929687,18 C614.4699277929687,18 611.5908177929688,20.38086 611.5908177929688,23.98608 L611.5908177929688,24.03957 C611.5908177929688,27.97615 614.1607477929688,29.0813 618.1218077929688,30.0997 C621.4135877929688,30.961199999999998 622.0984877929687,31.512999999999998 622.0984877929687,32.617599999999996 L622.0984877929687,32.6875 C622.0984877929687,33.8429 621.0172877929688,34.5512 619.2518577929687,34.5512 C616.9882377929688,34.5512 615.1372677929687,33.6174 613.3706977929687,32.1506 L610.7999877929688,35.240300000000005 C613.1656477929688,37.363299999999995 616.1826177929687,38.4 619.1660277929687,38.4 L619.1660277929687,38.3979 C623.4178877929687,38.3979 626.3999877929688,36.1877 626.3999877929688,32.2555 L626.3999877929688,32.2041 C626.3999877929688,28.735799999999998 624.1378877929687,27.30039 620.1428177929688,26.24887 C616.7490377929687,25.367440000000002 615.8903177929687,24.93707 615.8903177929687,23.64255 L615.8903177929687,23.59113 C615.8903177929687,22.62465 616.7649077929688,21.84878 618.4283277929687,21.84878 C620.0917577929688,21.84878 621.8064877929687,22.58946 623.5554877929687,23.813290000000002 L625.8012877929688,20.51992 C623.8118877929687,18.915018 621.3616877929687,18 618.4814677929687,18 z" id="svg_39"/>
	</g><g clip-path="url(#clip_7)" id="svg_40">
		<path fill="rgb(181,174,207)" stroke="none" d="M425.1887087890625,38.3083 C424.9688087890625,38.0039 425.2261087890625,37.5506 425.2261087890625,37.5506 L409.1415087890625,37.5506 L410.9330087890625,39.1581 C411.3288087890625,39.3203 411.8239087890625,39.7251 412.0503087890625,40.3457 C412.5877087890625,41.8076 411.7897087890625,40.6217 411.7897087890625,42.8313 C411.7897087890625,44.8653 411.2311087890625,44.5358 411.2311087890625,44.5358 C411.2311087890625,44.5358 411.1122087890625,46.9378 409.9021087890625,48.4132 C409.1317087890625,49.2077 409.7294087890625,49.8651 409.7294087890625,49.8651 C409.7294087890625,49.8651 409.4705087890625,50.0156 409.0926087890625,51.7569 C408.9705087890625,52.3206 409.67410878906253,53.1904 410.2848087890625,52.973 C410.7408087890625,52.8107 409.17410878906253,52.6551 410.8711087890625,51.9208 C411.5275087890625,51.6365 410.9917087890625,51.0995 410.9917087890625,51.0995 C410.9917087890625,51.0995 412.0942087890625,51.0126 412.7131087890625,49.3047 C413.8076087890625,49.4686 413.4021087890625,48.7795 415.6561087890625,48.281 C416.2539087890625,48.1472 416.3793087890625,47.9649 416.3060087890625,47.3878 C416.2311087890625,46.8107 417.0405087890625,47.4714 419.2750087890625,45.1296 C421.0372087890625,43.283 420.4020087890625,42.8681 421.6203087890625,42.1974 C422.9053087890625,41.4932 423.0258087890625,42.2576 423.45580878906253,41.6839 C424.4379087890625,40.3708 424.0926087890625,40.4544 424.5030087890625,39.6181 L424.7913087890625,39.1547 C424.7913087890625,39.1547 425.4102087890625,38.6111 425.1887087890625,38.3083 M432.5893087890625,38.9657 C428.8923087890625,50.7968 418.4933087890625,60 405.3158087890625,60 C391.3419087890625,60 381.9461287890625,50.9206 378.1725353890625,39.2216 C382.0992287890625,50.1193 392.7783087890625,57.9325 405.3353087890625,57.9325 C417.9900087890625,57.9325 428.7457087890625,49.9955 432.5893087890625,38.9657 M409.8027087890625,19.4235 C408.8092087890625,19.4536 408.7995087890625,18.6222 408.1040087890625,18.7745 C407.4086087890625,18.9267 407.5291087890625,18.1606 407.0226087890625,18.1506 C406.6480087890625,18.1405 406.1187087890625,17.9582 405.9428087890625,18.2308 C405.6545087890625,18.6758 406.2783087890625,18.0418 406.9233087890625,18.6072 C407.8402087890625,19.4084 407.7669087890625,18.8631 408.3141087890625,19.3198 C408.6675087890625,19.6175 408.3793087890625,19.7881 408.5894087890625,19.6794 C408.9851087890625,19.4753 409.6040087890625,19.7798 409.6040087890625,19.7798 C409.6040087890625,19.7798 410.7995087890625,19.3934 409.8027087890625,19.4235 M413.59100878906247,20.9005 C413.7327087890625,20.9005 413.9298087890625,20.8654 413.9477087890625,20.683 C413.8060087890625,20.6078 413.6969087890625,20.5158 413.5193087890625,20.5342 L413.59100878906247,20.9005 M410.3728087890625,20.5342 L410.5877087890625,20.5342 C410.7669087890625,20.4806 410.9086087890625,20.6998 410.9444087890625,20.8285 C411.4802087890625,20.387 412.08940878906253,20.5158 412.6610087890625,20.387 C412.08940878906253,20.1478 411.6073087890625,19.6727 410.9444087890625,19.6526 C410.0877087890625,19.6727 410.8728087890625,20.1126 410.3728087890625,20.5342 M405.3158087890625,0 C390.6187087890625,0 381.8272487890625,9.11457 378.1090087890625,20.9155 C381.0324587890625,12.6289 387.8532887890625,6.10037 396.4428087890625,3.3905700000000003 C396.3435087890625,3.4809 396.2816087890625,3.56286 396.27510878906253,3.63645 C395.4803087890625,4.14664 395.7539087890625,4.73209 395.3581087890625,4.86757 C394.6725087890625,5.10343 393.9233087890625,7.2578700000000005 393.9233087890625,7.2578700000000005 C393.9233087890625,7.2578700000000005 394.3484087890625,7.55059 393.0178087890625,9.08447 C391.9184087890625,10.3474 391.5943087890625,12.2593 391.5943087890625,12.2593 C391.5943087890625,12.2593 392.3191087890625,13.6225 392.1823087890625,15.1965 C392.0764087890625,16.3942 392.0275087890625,15.506 392.5357087890625,16.3725 C392.8321087890625,16.8826 393.1546087890625,18.6574 393.3500087890625,17.9665 C393.7262087890625,16.6451 392.6676087890625,15.4224 392.8435087890625,14.1076 C392.8826087890625,14.2732 393.2474087890625,13.5857 393.2344087890625,14.2063 C393.1953087890625,15.8305 395.1806087890625,18.9551 395.1806087890625,18.9551 C395.1806087890625,18.9551 394.4396087890625,19.7296 395.2132087890625,19.7296 L395.0177087890625,20.208 C395.0177087890625,20.208 395.59100878906247,20.1745 395.9624087890625,20.4856 C396.3337087890625,20.7984 396.6546087890625,21.1832 396.9933087890625,21.1832 C397.7669087890625,21.1832 402.6985087890625,21.1832 402.6985087890625,21.1832 C402.6985087890625,21.1832 403.1041087890625,19.4051 403.4330087890625,19.1023 C403.7653087890625,18.8012 402.7718087890625,19.1023 402.4770087890625,18.8012 C402.1822087890625,18.4985 401.9982087890625,19.0655 401.8516087890625,19.3683 C401.7034087890625,19.671 401.5194087890625,20.1996 401.0780087890625,20.3502 C400.6366087890625,20.5024 399.5715087890625,20.5776 399.3516087890625,20.5776 C399.1301087890625,20.5776 398.4656087890625,19.2846 398.4656087890625,19.2846 C397.8777087890625,18.3078 398.3158087890625,17.09 398.9835087890625,15.9058 C399.4770087890625,15.036 400.7832087890625,14.6512 401.9249087890625,15.1079 C403.2018087890625,14.0725 403.5096087890625,15.1865 404.6415087890625,14.683 C406.1301087890625,14.0206 405.2995087890625,16.441 406.7376087890625,17.0516 C407.3321087890625,15.4224 405.3793087890625,14.1963 406.6057087890625,13.4285 C407.4803087890625,12.8798 408.1399087890625,12.5403 408.4982087890625,11.806000000000001 C409.0079087890625,10.7588 409.2066087890625,9.99442 409.6008087890625,9.85726 C410.5096087890625,9.54111 410.3125087890625,8.65459 410.3125087890625,8.65459 C410.3125087890625,8.65459 411.2799087890625,8.94396 412.0291087890625,8.21968 C411.45580878906253,7.90354 410.6187087890625,7.63088 410.8386087890625,6.99693 C411.0975087890625,6.24924 413.0438087890625,7.768050000000001 413.6170087890625,6.54363 C412.4623087890625,6.02508 411.2816087890625,4.90103 410.57310878906253,4.64175 C410.0894087890625,5.18372 409.7864087890625,4.96627 409.1627087890625,4.45944 C408.1040087890625,3.59966 408.0145087890625,4.41426 407.3549087890625,3.82547 C406.8255087890625,4.91273 407.6219087890625,4.82576 407.8646087890625,5.10007 C408.5454087890625,5.8645 407.1790087890625,4.41259 407.3109087890625,6.36296 C407.3434087890625,6.86646 406.6154087890625,6.96181 406.0747087890625,5.8645 C405.7930087890625,5.29411 403.5470087890625,5.41455 403.2067087890625,4.86757 C403.5177087890625,4.23194 406.1627087890625,1.9687700000000001 410.2213087890625,2.51073 C410.0992087890625,2.46222 409.9754087890625,2.41873 409.8500087890625,2.37356 C420.5617087890625,4.01282 429.3157087890625,11.3928 432.6545087890625,21.1714 C429.0063087890625,9.23837 418.97370878906247,0 405.3158087890625,0 " id="svg_41"/>
	</g><g clip-path="url(#clip_8)" id="svg_42">
		<path fill="rgb(181,174,207)" stroke="none" d="M355.20001220703125,24 L350.7154922070313,24 L351.3852522070313,24.801326 L351.3852522070313,30.72375 C351.3852522070313,32.054410000000004 350.50855220703124,32.6165 349.2000222070312,32.6165 C347.89312220703124,32.6165 347.01316220703126,32.054410000000004 347.01316220703126,30.72375 L347.01316220703126,24.801326 L347.68454220703126,24 L343.20001220703125,24 L343.87139020703125,24.801326 L343.87139020703125,30.81879 C343.87139020703125,33.77017 345.51398220703123,34.9091 349.2000222070312,34.9091 C352.8860622070313,34.9091 354.5303122070313,33.77017 354.5303122070313,30.81879 L354.5303122070313,24.801326 L355.20001220703125,24 " id="svg_43"/>
	</g><g clip-path="url(#clip_9)" id="svg_44">
		<path fill="rgb(181,174,207)" stroke="none" d="M370.4729919433594,24 L366.67178194335935,24 L367.3451919433594,24.816911 L367.3451919433594,30.31324 L361.8907819433594,24 L358.4729919433594,24 L359.1480309433594,24.816911 L359.1480309433594,34.0922 L358.4729919433594,34.9091 L362.2758319433594,34.9091 L361.60079194335935,34.0922 L361.60079194335935,28.49728 L367.3927019433594,34.9091 L369.79959194335936,34.9091 L369.79959194335936,24.816911 L370.4729919433594,24 " id="svg_45"/>
	</g><g clip-path="url(#clip_10)" id="svg_46">
		<path fill="rgb(181,174,207)" stroke="none" d="M379.1996385351562,34.9091 L378.55240853515625,34.0922 L378.55240853515625,24.816911 L379.1996385351562,24 L374.83599853515625,24 L375.48479053515626,24.816911 L375.48479053515626,34.0922 L374.83599853515625,34.9091 L379.1996385351562,34.9091 " id="svg_47"/>
	</g><g clip-path="url(#clip_11)" id="svg_48">
		<path fill="rgb(181,174,207)" stroke="none" d="M394.4729919433594,24 L390.73502194335936,24 L391.39438194335935,24.816911 L388.75535194335936,30.81944 L386.21097194335937,24.816911 L386.8703219433594,24 L382.4729919433594,24 L387.35642194335935,34.9091 L389.54144194335936,34.9091 L394.4729919433594,24 " id="svg_49"/>
	</g><g clip-path="url(#clip_12)" id="svg_50">
		<path fill="rgb(181,174,207)" stroke="none" d="M408.65417853515623,34.9091 L408.65417853515623,31.94877 L407.87178853515627,32.63539 L402.54036853515623,32.63539 L402.54036853515623,30.54212 L405.91740853515626,30.54212 L406.68383853515627,31.23041 L406.68383853515627,27.67868 L405.91740853515626,28.3653 L402.54036853515623,28.3653 L402.54036853515623,26.27203 L407.87178853515627,26.27203 L408.65417853515623,26.96032 L408.65417853515623,24 L398.83599853515625,24 L399.49224653515626,24.816911 L399.49224653515626,34.0922 L398.83599853515625,34.9091 L408.65417853515623,34.9091 " id="svg_51"/>
	</g><g clip-path="url(#clip_13)" id="svg_52">
		<path fill="rgb(181,174,207)" stroke="none" d="M421.1214953710938,30.60727 L423.9271053710938,34.9091 L419.32388537109375,34.9091 L419.97425537109376,34.0922 L417.9914953710938,30.999859999999998 L416.68918537109374,30.999859999999998 L416.68918537109374,34.0922 L417.34112537109377,34.9091 L413.01800537109375,34.9091 L413.66837737109375,34.0922 L413.66837737109375,24.816911 L413.01800537109375,24 L419.4631253710937,24 C422.40799537109376,24 423.46030537109374,25.48684 423.46030537109374,27.3028 C423.46030537109374,28.889879999999998 422.49977537109373,30.01921 421.1214953710938,30.60727 zM418.65768537109375,28.95671 C419.64827537109375,28.95671 420.36193537109375,28.31853 420.36193537109375,27.53334 C420.36193537109375,26.63287 419.7115753710938,26.27203 419.02955537109375,26.27203 L416.68918537109374,26.27203 L416.68918537109374,28.95671 L418.65768537109375,28.95671 z" fill-rule="evenodd" id="svg_53"/>
	</g><g clip-path="url(#clip_14)" id="svg_54">
		<path fill="rgb(181,174,207)" stroke="none" d="M438.10916510742186,31.248089578857424 C438.10916510742186,29.457219578857423 436.7379551074219,28.46093957885742 434.73896510742185,27.78527957885742 C433.4503651074219,27.36471957885742 431.61657510742185,27.06135957885742 431.61657510742185,26.166789578857422 C431.61657510742185,25.728979578857423 432.1287251074219,25.423899578857423 433.0043051074219,25.423899578857423 C434.16074510742186,25.423899578857423 436.0771351074219,25.930649578857423 437.5639851074219,26.673529578857423 L437.5639851074219,22.909099578857422 L436.70491510742187,23.770925578857423 C435.79628510742185,23.38309857885742 434.22682510742186,22.976312078857422 433.13647510742186,22.976312078857422 C429.46890510742185,22.976312078857422 428.2909851074219,24.66548957885742 428.2909851074219,26.199539578857422 C428.2909851074219,28.293759578857422 429.61758510742186,29.20555957885742 431.69917510742187,29.96395957885742 C433.2521151074219,30.52069957885742 434.68940510742186,30.57241957885742 434.68940510742186,31.499739578857422 C434.68940510742186,32.292619578857426 433.7972851074219,32.39429957885742 433.35123510742187,32.39429957885742 C432.21131510742185,32.39429957885742 430.1627651074219,31.97201957885742 428.3537724074219,30.74132957885742 L428.3537724074219,34.90909957885742 L429.2111861074219,33.93009957885742 C430.0471251074219,34.266199578857425 431.9469851074219,34.84189957885742 433.49992510742186,34.84189957885742 C436.68839510742185,34.84189957885742 438.10916510742186,33.37329957885742 438.10916510742186,31.248089578857424 " id="svg_55"/>
	</g><g clip-path="url(#clip_15)" id="svg_56">
		<path fill="rgb(181,174,207)" stroke="none" d="M448.17141510742186,24 L453.38188510742185,34.9091 L448.91576510742186,34.9091 L449.57922510742185,34.0922 L449.0614051074219,32.94779 L444.0289351074219,32.94779 L443.5111251074219,34.0922 L444.1745751074219,34.9091 L440.2909851074219,34.9091 L444.99983510742186,24.816911 L444.61146510742185,24 L448.17141510742186,24 zM444.78946510742185,30.98483 L448.2846951074219,30.98483 L446.53707510742186,27.07558 L444.78946510742185,30.98483 z" fill-rule="evenodd" id="svg_57"/>
	</g><g clip-path="url(#clip_16)" id="svg_58">
		<path fill="rgb(181,174,207)" stroke="none" d="M465.3821753613281,34.9091 L465.3821753613281,31.94877 L464.5736153613281,32.63539 L459.3922553613281,32.63539 L459.3922553613281,24.816911 L460.06880536132815,24 L455.5639953613281,24 L456.24054736132814,24.816911 L456.24054736132814,34.0922 L455.5639953613281,34.9091 L465.3821753613281,34.9091 " id="svg_59"/>
	</g><g clip-path="url(#clip_17)" id="svg_60">
		<path fill="rgb(181,174,207)" stroke="none" d="M464.84541220703125,22.909099578857422 C463.94135220703123,22.909099578857422 463.20001220703125,23.641799578857423 463.20001220703125,24.546379578857422 C463.20001220703125,25.450939578857422 463.94135220703123,26.18182957885742 464.84541220703125,26.18182957885742 C465.74948220703124,26.18182957885742 466.4727422070313,25.450939578857422 466.4727422070313,24.546379578857422 C466.4727422070313,23.641799578857423 465.74948220703124,22.909099578857422 464.84541220703125,22.909099578857422 zM464.84541220703125,26.028059578857423 C464.03175420703127,26.028059578857423 463.36274320703126,25.365919578857422 463.36274320703126,24.546379578857422 C463.36274320703126,23.72502357885742 464.03175420703127,23.061074578857422 464.84541220703125,23.061074578857422 C465.6590722070313,23.061074578857422 466.32808220703123,23.72502357885742 466.32808220703123,24.546379578857422 C466.32808220703123,25.365919578857422 465.6590722070313,26.028059578857423 464.84541220703125,26.028059578857423 z" fill-rule="evenodd" id="svg_61"/>
	</g><g clip-path="url(#clip_18)" id="svg_62">
		<path fill="rgb(181,174,207)" stroke="none" d="M224.41480610351562,16.799999237060547 L244.15060610351563,16.799999237060547 L241.13350610351563,21.600869237060547 L221.42038610351563,21.600869237060547 L224.41480610351562,16.799999237060547 zM236.11890610351563,36.01159923706055 L248.18380610351562,16.845795837060546 L264.0000061035156,40.79999923706055 L258.1653061035156,40.79999923706055 L254.98920610351564,36.01159923706055 L245.84250610351563,36.01159923706055 L248.76760610351562,31.206699237060548 L251.8564061035156,31.206699237060548 L248.4309061035156,26.018759237060546 L239.03600610351563,40.79999923706055 L213.60000610351562,40.79999923706055 L219.69487610351564,31.206699237060548 L215.30203610351563,31.206699237060548 L218.36539610351562,26.404059237060547 L236.9087061035156,26.404059237060547 L233.84470610351562,31.206699237060548 L225.82370610351563,31.206699237060548 L222.73612610351563,36.01159923706055 L236.11890610351563,36.01159923706055 z" fill-rule="evenodd" id="svg_63"/>
	</g><g clip-path="url(#clip_19)" id="svg_64">
		<path fill="rgb(181,174,207)" stroke="none" d="M3.98182,40.8 L12.2727,40.8 L14.9455,25.28112 L21.4909,25.28112 L22.8,18 L1.30909,18 L0,25.28112 L6.77286,25.28112 L3.98182,40.8 z" id="svg_65"/>
	</g><g clip-path="url(#clip_20)" id="svg_66">
		<path fill="rgb(181,174,207)" stroke="none" d="M23.965130381469727,18 L31.638300381469726,18 L29.466010381469726,30.6709 C29.426800381469725,35.0363 34.660300381469725,34.5426 35.67130038146973,30.6709 L38.006600381469724,18.0296158 L45.60000038146973,18.0296158 L43.47800038146973,30.9384 C41.283600381469725,44.225300000000004 19.327250381469728,43.995999999999995 21.792796381469728,30.7937 L23.965130381469727,18 z" id="svg_67"/>
	</g><g clip-path="url(#clip_21)" id="svg_68">
		<path fill="rgb(181,174,207)" stroke="none" d="M55.541200762939454,21.834749237060546 C55.541200762939454,19.052479237060545 57.88250076293946,16.799999237060547 60.77060076293945,16.799999237060547 C63.65870076293945,16.799999237060547 66.00000076293945,19.052479237060545 66.00000076293945,21.834749237060546 C66.00000076293945,24.617009237060547 63.65870076293945,26.874199237060544 60.77060076293945,26.874199237060544 C57.88250076293946,26.874199237060544 55.541200762939454,24.617009237060547 55.541200762939454,21.834749237060546 zM43.20000076293945,39.599999237060544 L47.07782076293945,17.223878237060546 L55.32000076293945,17.223878237060546 L51.33900076293945,39.599999237060544 L43.20000076293945,39.599999237060544 z" fill-rule="evenodd" id="svg_69"/>
	</g><g clip-path="url(#clip_22)" id="svg_70">
		<path fill="rgb(181,174,207)" stroke="none" d="M125.14120305175781,21.834749237060546 C125.14120305175781,19.052479237060545 127.48250305175782,16.799999237060547 130.37060305175783,16.799999237060547 C133.2587030517578,16.799999237060547 135.60000305175782,19.052479237060545 135.60000305175782,21.834749237060546 C135.60000305175782,24.617009237060547 133.2587030517578,26.874199237060544 130.37060305175783,26.874199237060544 C127.48250305175782,26.874199237060544 125.14120305175781,24.617009237060547 125.14120305175781,21.834749237060546 zM112.80000305175781,39.599999237060544 L116.67782305175781,17.223878237060546 L124.92000305175782,17.223878237060546 L120.93900305175781,39.599999237060544 L112.80000305175781,39.599999237060544 z" fill-rule="evenodd" id="svg_71"/>
	</g><g clip-path="url(#clip_23)" id="svg_72">
		<path fill="rgb(181,174,207)" stroke="none" d="M64.80000305175781,39.599999237060544 L72.29833305175781,39.599999237060544 L74.55307305175782,27.517199237060545 C74.55307305175782,23.272139237060546 81.56400305175781,21.168599237060548 80.74050305175781,27.517199237060545 L78.74790305175782,39.599999237060544 L86.40360305175781,39.599999237060544 L88.65830305175781,26.092549237060545 C90.13670305175782,14.751839237060548 79.66560305175781,15.054979237060547 74.97260305175782,20.288569237060546 L75.75910305175782,17.43934023706055 L68.68025305175782,17.43934023706055 L64.80000305175781,39.599999237060544 z" id="svg_73"/>
	</g><g clip-path="url(#clip_24)" id="svg_74">
		<path fill="rgb(181,174,207)" stroke="none" d="M96.25251,19.115359237060545 C98.68766,17.703646237060546 101.1247,16.867751637060547 103.5233,16.80394144706055 C105.9218,16.740131237060545 108.2808,17.44840523706055 110.5573,19.115359237060545 C113.3188,21.643269237060547 115.012,25.05904923706055 113.3303,31.28529923706055 L97.17524,31.28529923706055 C97.20655,32.07919923706055 97.52619,32.64939923706055 97.88541000000001,33.186499237060545 C100.0415,35.361999237060544 102.7996,34.48969923706055 104.2479,33.15759923706055 L112.4704,33.15759923706055 C111.1322,37.526199237060545 103.207,43.37639923706055 94.84667,39.57069923706055 C86.85948,34.963899237060545 89.752137,23.177039237060548 96.25251,19.115359237060545 zM105.4702,23.323209237060546 C104.851,22.903419237060547 104.16499999999999,22.731379237060548 103.4653,22.734489237060547 C102.56569999999999,22.738499237060548 101.64750000000001,23.033029237060546 100.8227,23.46314923706055 C99.59266,24.22064923706055 98.8666,25.151879237060548 98.42649,26.17990923706055 L106.7456,26.20403923706055 C106.7442,24.92701923706055 106.4738,24.003609237060548 105.4702,23.323209237060546 z" fill-rule="evenodd" id="svg_75"/>
	</g></g></svg>