<?xml version="1.0" encoding="utf-8" ?>
<svg xmlns="http://www.w3.org/2000/svg" xmlns:xlink="http://www.w3.org/1999/xlink" width="136" height="24">
	<defs>
		<clipPath id="clip_0">
			<rect x="-413.25839" y="-829.638" width="1433.6639" height="3581.1731" clip-rule="evenodd"/>
		</clipPath>
	</defs>
	<g clip-path="url(#clip_0)">
		<path fill="rgb(181,174,207)" stroke="none" transform="matrix(0.9956 0 0 0.9956 0.911194 1.68799)" d="M3.98182 22.8L12.2727 22.8L14.9455 7.28112L21.4909 7.28112L22.8 0L1.30909 0L0 7.28112L6.77286 7.28112L3.98182 22.8Z"/>
	</g>
	<defs>
		<clipPath id="clip_1">
			<rect x="-413.25839" y="-829.638" width="1433.6639" height="3581.1731" clip-rule="evenodd"/>
		</clipPath>
	</defs>
	<g clip-path="url(#clip_1)">
		<path fill="rgb(181,174,207)" stroke="none" transform="matrix(0.9956 0 0 0.9956 22.4161 1.68799)" d="M2.36513 0L10.0383 0L7.86601 12.6709C7.8268 17.0363 13.0603 16.5426 14.0713 12.6709L16.4066 0.0296158L24 0.0296158L21.878 12.9384C19.6836 26.2253 -2.27275 25.996 0.192796 12.7937L2.36513 0Z"/>
	</g>
	<defs>
		<clipPath id="clip_2">
			<rect x="-413.25839" y="-829.638" width="1433.6639" height="3581.1731" clip-rule="evenodd"/>
		</clipPath>
	</defs>
	<g clip-path="url(#clip_2)">
		<path fill="rgb(181,174,207)" stroke="none" transform="matrix(0.9956 0 0 0.9956 43.9211 0.493225)" d="M12.3412 5.03475C12.3412 2.25248 14.6825 0 17.5706 0C20.4587 0 22.8 2.25248 22.8 5.03475C22.8 7.81701 20.4587 10.0742 17.5706 10.0742C14.6825 10.0742 12.3412 7.81701 12.3412 5.03475ZM0 22.8L3.87782 0.423879L12.12 0.423879L8.139 22.8L0 22.8Z" fill-rule="evenodd"/>
	</g>
	<defs>
		<clipPath id="clip_3">
			<rect x="-413.25839" y="-829.638" width="1433.6639" height="3581.1731" clip-rule="evenodd"/>
		</clipPath>
	</defs>
	<g clip-path="url(#clip_3)">
		<path fill="rgb(181,174,207)" stroke="none" transform="matrix(0.9956 0 0 0.9956 113.215 0.493225)" d="M12.3412 5.03475C12.3412 2.25248 14.6825 0 17.5706 0C20.4587 0 22.8 2.25248 22.8 5.03475C22.8 7.81701 20.4587 10.0742 17.5706 10.0742C14.6825 10.0742 12.3412 7.81701 12.3412 5.03475ZM0 22.8L3.87782 0.423879L12.12 0.423879L8.139 22.8L0 22.8Z" fill-rule="evenodd"/>
	</g>
	<defs>
		<clipPath id="clip_4">
			<rect x="-413.25839" y="-829.638" width="1433.6639" height="3581.1731" clip-rule="evenodd"/>
		</clipPath>
	</defs>
	<g clip-path="url(#clip_4)">
		<path fill="rgb(181,174,207)" stroke="none" transform="matrix(0.9956 0 0 0.9956 65.4261 0.493225)" d="M0 22.8L7.49833 22.8L9.75307 10.7172C9.75307 6.47214 16.764 4.3686 15.9405 10.7172L13.9479 22.8L21.6036 22.8L23.8583 9.29255C25.3367 -2.04816 14.8656 -1.74502 10.1726 3.48857L10.9591 0.639341L3.88025 0.639341L0 22.8Z"/>
	</g>
	<defs>
		<clipPath id="clip_5">
			<rect x="-413.25839" y="-829.638" width="1433.6639" height="3581.1731" clip-rule="evenodd"/>
		</clipPath>
	</defs>
	<g clip-path="url(#clip_5)">
		<path fill="rgb(181,174,207)" stroke="none" transform="matrix(0.9956 0 0 0.9956 90.5152 0.493225)" d="M6.25251 2.31536C8.68766 0.903647 11.1247 0.0677524 13.5233 0.00394221C15.9218 -0.059868 18.2808 0.648406 20.5573 2.31536C23.3188 4.84327 25.012 8.25905 23.3303 14.4853L7.17524 14.4853C7.20655 15.2792 7.52619 15.8494 7.88541 16.3865C10.0415 18.562 12.7996 17.6897 14.2479 16.3576L22.4704 16.3576C21.1322 20.7262 13.207 26.5764 4.84667 22.7707C-3.14052 18.1639 -0.247863 6.37704 6.25251 2.31536ZM15.4702 6.52321C14.851 6.10342 14.165 5.93138 13.4653 5.93449C12.5657 5.9385 11.6475 6.23303 10.8227 6.66315C9.59266 7.42065 8.8666 8.35188 8.42649 9.37991L16.7456 9.40404C16.7442 8.12702 16.4738 7.20361 15.4702 6.52321Z" fill-rule="evenodd"/>
	</g>

</svg>